<svg viewBox="0 0 17 19" fill="none" xmlns="http://www.w3.org/2000/svg">
<path d="M16.6945 1.62801C16.7341 1.9398 17.0114 2.76939 16.8541 2.94608C16.3949 3.45602 15.9456 3.97245 15.4574 4.4576C14.3458 5.54773 13.2202 6.62014 12.0491 7.55197C11.9897 7.61009 11.9639 7.69892 11.9377 7.74454C11.837 7.7927 11.7497 7.81538 11.6856 7.86759C11.43 8.07114 11.1795 8.27526 10.9378 8.49652C10.7787 8.64067 10.6383 8.80846 10.4845 8.95319C10.3429 9.0831 9.98549 8.86889 9.82975 8.7923C9.77455 8.7646 9.74677 8.68063 9.7114 8.61739C9.68068 8.56005 9.67907 8.47898 9.64016 8.4477C9.15335 8.10789 8.66536 7.77874 8.17273 7.44368C8.15526 7.45792 8.14361 7.46741 8.12614 7.48165C8.1789 7.57918 8.22583 7.68146 8.28965 7.77482C8.49562 8.06731 8.57649 8.38907 8.51597 8.74368C8.47715 8.99823 8.57338 9.18148 8.77437 9.3278C9.4511 9.8181 10.0544 10.3973 10.5866 11.0442C11.2999 11.9214 11.6518 12.9527 11.7382 14.084C11.7638 14.4266 11.8063 14.7603 11.8319 15.1029C11.8518 15.3532 11.7591 15.4723 11.5194 15.532C11.2366 15.5978 11.1305 15.7424 11.1568 16.0311C11.1801 16.298 11.1931 16.5637 11.2269 16.8317C11.2803 17.2582 11.4864 17.4537 11.8881 17.5575C12.0532 17.5974 12.2112 17.7012 12.3536 17.8033C12.4761 17.8924 12.5026 18.0355 12.4547 18.1812C12.4015 18.3263 12.2949 18.4277 12.1472 18.4222C11.4941 18.3875 10.8364 18.3469 10.1804 18.2903C9.97048 18.2724 9.85331 18.0869 9.86707 17.8673C9.86892 17.8028 9.88243 17.7288 9.90463 17.6719C10.1259 17.1572 9.82771 16.7412 9.63009 16.3256C9.50145 16.0525 9.20727 15.9821 8.91057 16.0301C8.33809 16.1284 7.76967 16.2379 7.20183 16.3422C6.95341 16.3847 6.87322 16.3435 6.76601 16.1159C6.6507 15.8658 6.42743 15.8248 6.22992 16.0294C6.00851 16.2584 5.80567 16.5109 5.57498 16.728C5.48585 16.8152 5.33568 16.8794 5.21413 16.8767C4.67035 16.8596 4.12429 16.8152 3.57646 16.7868C3.29731 16.772 3.05378 16.6749 2.84182 16.4842C2.6107 16.2752 2.38735 16.2828 2.15201 16.494C1.78854 16.8096 1.7163 17.2223 1.94413 17.652C2.1111 17.9617 2.0532 18.1495 1.70939 18.1922C1.30625 18.2446 0.897358 18.2532 0.494377 18.2085C0.101864 18.165 -0.0342976 17.864 0.0983895 17.4797C0.253867 17.0331 0.56213 16.6898 0.850641 16.3335C0.936908 16.2244 1.01853 16.1095 1.07517 15.9809C1.29294 15.4981 1.51536 15.0213 1.70232 14.5297C1.82268 14.2087 1.90818 13.8676 1.98322 13.5254C2.03774 13.2726 2.16309 13.0977 2.39184 12.9937C2.46984 12.9592 2.54378 12.9134 2.61713 12.873C2.85813 12.7542 2.9806 12.5574 3.01014 12.291C3.06517 11.7471 3.12078 11.1978 3.19674 10.6561C3.22088 10.4862 3.28343 10.3044 3.37906 10.1586C3.79427 9.51976 4.224 8.8933 4.65372 8.26684C4.78025 8.08134 4.75999 8.02516 4.54542 8.00136C4.02148 7.94866 4.00687 7.98479 4.13179 7.38385C4.32896 6.37028 4.54528 5.37501 4.98657 4.45322C5.24925 3.89992 5.58165 3.3867 5.87919 2.85344C6.12153 2.96121 6.16577 2.94455 6.25346 2.67923C6.37332 2.31502 6.35474 1.95703 6.25766 1.59033C6.2282 1.47381 6.17705 1.45736 6.07457 1.52149C5.83527 1.67292 5.76031 1.63225 5.74511 1.33935C5.73954 1.19852 5.74443 1.05884 5.77026 0.921492C5.80723 0.731447 5.93064 0.669631 6.10908 0.732563C6.13466 0.740793 6.16024 0.749022 6.1794 0.767325C6.43196 1.02183 6.7339 0.974425 7.055 0.945318C7.33828 0.922804 7.62959 0.971286 7.90865 1.03459C8.19819 1.09906 8.35891 1.32181 8.39386 1.62769C8.41395 1.78092 8.41252 1.93715 8.42215 2.08922C8.44216 2.29098 8.46217 2.49273 8.48564 2.71105C8.28972 2.66236 8.21797 2.78383 8.17349 2.94608C8.0933 3.23919 7.94871 3.44427 7.60727 3.46572C7.42055 3.47738 7.49711 3.59912 7.57722 3.68889C8.12405 4.29961 8.67729 4.90025 9.18977 5.53412C9.74402 6.22116 10.4498 6.73625 11.0653 7.34919C11.1036 7.38579 11.1535 7.41291 11.1995 7.42879C11.3634 7.47932 11.4391 7.41761 11.4376 7.28801C11.5686 7.20547 11.6868 7.14307 11.7805 7.06179C13.3481 5.63394 14.0512 4.86043 15.4574 3.26367C15.6392 3.05733 16.487 1.87465 16.6945 1.62801ZM9.17974 6.62777C9.16227 6.64201 9.15062 6.6515 9.13315 6.66575C9.45535 7.00887 9.78279 7.35258 10.1108 7.69096C10.1439 7.72698 10.2306 7.70963 10.2934 7.7166C10.2749 7.64444 10.2861 7.54322 10.2426 7.50603C9.89413 7.20853 9.53402 6.92052 9.17974 6.62777Z" fill="currentColor"/>
</svg>
