<?xml version="1.0" standalone="no"?>
<!DOCTYPE svg PUBLIC "-//W3C//DTD SVG 20010904//EN"
 "http://www.w3.org/TR/2001/REC-SVG-20010904/DTD/svg10.dtd">
<svg version="1.0" xmlns="http://www.w3.org/2000/svg"
 width="152.000000pt" height="152.000000pt" viewBox="0 0 152.000000 152.000000"
 preserveAspectRatio="xMidYMid meet">

<g transform="translate(0.000000,152.000000) scale(0.100000,-0.100000)"
fill="#000000" stroke="none">
<path d="M528 1035 c-165 -283 -516 -909 -513 -913 2 -2 25 8 52 21 48 25 48
25 257 404 116 208 226 407 247 443 67 118 101 193 91 199 -5 3 -11 15 -14 26
-2 14 -40 -42 -120 -180z"/>
<path d="M620 883 c-278 -489 -331 -585 -327 -590 10 -9 227 108 241 129 8 13
59 103 113 201 55 99 104 179 109 178 5 0 67 -101 137 -223 71 -123 132 -226
136 -230 8 -9 170 -32 177 -25 7 7 -444 777 -456 777 -3 0 -62 -98 -130 -217z"/>
<path d="M1033 838 c2 -7 86 -155 185 -328 171 -298 180 -315 157 -318 -13 -2
-88 6 -167 17 -115 17 -445 61 -455 61 -7 0 -2 -70 5 -71 4 0 174 -17 377 -38
204 -21 371 -37 372 -37 1 1 -64 113 -187 321 -26 44 -85 144 -131 223 -46 78
-88 142 -95 142 -6 0 -19 9 -29 20 -20 22 -40 27 -32 8z"/>
<path d="M740 671 c-6 -12 -10 -28 -8 -35 2 -7 37 -72 78 -144 63 -110 80
-132 103 -138 16 -3 31 -3 34 -1 5 5 -168 310 -187 331 -5 4 -13 -2 -20 -13z"/>
</g>
</svg>
