<svg xmlns="http://www.w3.org/2000/svg" enable-background="new 0 0 1364 960" viewBox="0 0 1364 960" fit="" height="100%" width="100%" preserveAspectRatio="xMidYMid meet" focusable="false">
  <path fill="#7361BA" d="M267.245,636.188H67.086V545.82l200.158-237.924h95.763v243.049h49.635v85.243h-49.635v73.913h-95.763  V636.188z M267.245,550.945V426.492L161.484,550.945H267.245z" class="color808FFF svgShape"></path>
  <rect width="20.598" height="85.243" x="392.044" y="550.945" fill="#5844A0" class="color6373EB svgShape"></rect>
  <rect width="20.598" height="243.049" x="342.41" y="307.896" fill="#5844A0" class="color6373EB svgShape"></rect>
  <polygon fill="#5844A0" points="161.484 550.945 267.245 429.421 267.245 405.182 140.886 550.945" class="color6373EB svgShape"></polygon>
  <rect width="20.598" height="73.913" x="342.41" y="636.188" fill="#5844A0" class="color6373EB svgShape"></rect>

  <path fill="#b6b0ff" d="M585.855,457.134c0.03-0.568,0.061-1.136,0.102-1.705C585.663,455.937,585.612,456.566,585.855,457.134z   M798.313,458.291c-4.927-46.044-13.13-94.391-46.893-127.894c-3.282-3.431-6.706-6.673-10.49-9.658  c-19.342,25.237-46.308,41.95-74.103,56.683c24.189,25.504,22.686,83.656,23.365,127.316c4.758-3.247,8.025-7.944,9.222-12.936  c32.156-11.262,65.612-20.033,99.812-20.92C798.992,466.661,798.688,462.461,798.313,458.291z M690.029,480.571  c0.071,3.267,0.122,6.615,0.152,10.044c1.491-0.974,2.841-2.09,4.028-3.318C692.789,485.075,691.399,482.833,690.029,480.571z" class="colorB6B0FF svgShape"></path>
  <path fill="#1AD0FF" d="M799.865,493.74c-2.526,129.58-28.739,206.729-162.439,208.198c-60.137-0.173-100.517-15.902-131.579-62.812  c-44.991-74.348-40.301-249.057,10.418-302.418c43.085-52.445,167.874-62.387,224.664-15.969  c-19.342,25.237-46.308,41.95-74.103,56.683c-20.751-21.613-58.656-14.893-69.74,15.198c-7.721,18.38-9.785,42.089-11.13,62.81  c-2.097,40.468-2.658,112.263,12.347,143.488c15.878,38.779,65.47,35.01,79.541-1.118c11.953-28.048,11.528-59.668,12.347-93.063  c4.758-3.247,8.025-7.944,9.222-12.936c32.156-11.262,65.612-20.033,99.812-20.92C799.652,478.43,799.865,486.049,799.865,493.74z" class="color5784FF svgShape"></path>
  <path fill="#66E0FF" d="M799.226,470.882c-0.233-4.221-0.538-8.421-0.913-12.591c-4.927-46.044-13.13-94.391-46.893-127.894  c-3.282-3.431-6.706-6.673-10.49-9.658c-56.791-46.418-181.579-36.475-224.664,15.969c-50.719,53.361-55.41,228.07-10.418,302.418  c31.062,46.911,71.442,62.639,131.579,62.812c133.699-1.469,159.913-78.618,162.439-208.198  C799.865,486.049,799.652,478.43,799.226,470.882z M677.845,597.8c-14.071,36.127-63.663,39.896-79.541,1.118  c-15.004-31.225-14.443-103.02-12.346-143.488c1.345-20.721,3.409-44.431,11.13-62.81c11.083-30.091,48.989-36.811,69.74-15.198  c24.189,25.504,22.686,83.656,23.365,127.316C689.373,538.133,689.798,569.753,677.845,597.8z" class="color808FFF svgShape"></path>
  <path fill="#25ADE1" d="M597.087,392.62c4.713-12.797,14.283-21.349,25.316-25.311c-20.862-9.23-47.73-0.239-56.767,24.296  c-7.721,18.38-9.785,42.089-11.13,62.81c-2.097,40.468-2.658,112.263,12.347,143.488c10.116,24.706,33.917,32.138,53.497,24.938  c-9.181-4.193-17.191-12.065-22.046-23.923c-15.004-31.225-14.443-103.02-12.346-143.488  C587.302,434.709,589.366,410.999,597.087,392.62z" class="color6373EB svgShape"></path>
  <path fill="#25ADE1" d="M799.226,470.882c-0.233-4.221-0.538-8.421-0.913-12.591c-4.927-46.044-13.13-94.391-46.893-127.894  c-3.282-3.431-6.706-6.673-10.49-9.658c-26.559-21.708-67.989-31.087-108.98-29.559c29.864,3.103,57.801,12.42,77.529,28.545  c3.784,2.986,7.208,6.227,10.49,9.658c33.763,33.503,41.966,81.85,46.893,127.894c0.375,4.17,0.68,8.37,0.913,12.591  c0.426,7.548,0.639,15.167,0.639,22.858c-2.486,127.538-27.92,204.284-156.198,208.072c8.004,0.744,16.389,1.115,25.21,1.141  c133.699-1.469,159.913-78.618,162.439-208.198C799.865,486.049,799.652,478.43,799.226,470.882z" class="color6373EB svgShape"></path>

  <path fill="#D92E99" d="M1078.3,636.188H878.142V545.82L1078.3,307.896h95.763v243.049h49.635v85.243h-49.635v73.913H1078.3V636.188  z M1078.3,550.945V426.492L972.539,550.945H1078.3z" class="color808FFF svgShape"></path>
  <rect width="20.598" height="85.243" x="1203.1" y="550.945" fill="#CE2F61" class="color6373EB svgShape"></rect>
  <rect width="20.598" height="243.049" x="1153.465" y="307.896" fill="#CE2F61" class="color6373EB svgShape"></rect>
  <polygon fill="#CE2F61" points="972.539 550.945 1078.3 429.421 1078.3 405.182 951.941 550.945" class="color6373EB svgShape"></polygon>
  <rect width="20.598" height="73.913" x="1153.465" y="636.188" fill="#CE2F61" class="color6373EB svgShape"></rect>
</svg>
