<?xml version="1.0" standalone="no"?>
<!DOCTYPE svg PUBLIC "-//W3C//DTD SVG 20010904//EN"
 "http://www.w3.org/TR/2001/REC-SVG-20010904/DTD/svg10.dtd">
<svg version="1.0" xmlns="http://www.w3.org/2000/svg"
 width="2109.000000pt" height="1835.000000pt" viewBox="0 0 2109.000000 1835.000000"
 preserveAspectRatio="xMidYMid meet">

<g transform="translate(0.000000,1835.000000) scale(0.100000,-0.100000)"
fill="currentColor" stroke="none">
<path d="M10369 18278 c-23 -40 -61 -104 -84 -143 -48 -80 -131 -223 -353
-610 -85 -148 -185 -322 -222 -385 -85 -144 -501 -867 -755 -1310 -106 -184
-225 -391 -265 -460 -40 -69 -186 -323 -325 -565 -139 -242 -305 -532 -370
-645 -122 -212 -467 -815 -857 -1500 -272 -477 -344 -604 -755 -1330 -176
-311 -396 -698 -488 -860 -92 -162 -207 -365 -255 -450 -48 -85 -123 -218
-167 -295 -183 -321 -404 -711 -623 -1100 -97 -171 -467 -831 -572 -1020 -55
-99 -124 -220 -153 -270 -49 -86 -143 -253 -570 -1015 -103 -184 -215 -384
-250 -445 -119 -210 -283 -501 -405 -720 -67 -121 -153 -274 -190 -340 -37
-66 -133 -237 -212 -380 -224 -401 -510 -911 -703 -1250 -122 -215 -322 -572
-528 -940 -77 -137 -168 -301 -203 -363 -35 -61 -93 -163 -128 -225 -35 -61
-158 -283 -273 -492 -306 -554 -554 -992 -612 -1082 -27 -43 -46 -79 -41 -81
5 -2 44 17 87 41 43 24 186 99 318 167 323 165 561 288 730 375 77 40 208 107
290 150 83 42 159 87 170 99 11 12 110 183 220 381 282 510 801 1442 940 1690
65 116 139 248 165 295 135 241 339 607 437 780 60 107 186 330 278 495 93
165 236 419 318 565 82 146 236 420 342 610 105 190 270 482 365 650 95 168
203 359 240 425 37 66 209 372 382 680 366 650 547 974 738 1315 75 135 198
353 272 485 74 132 191 339 258 460 68 121 186 333 263 470 77 138 183 329
237 425 109 198 520 928 735 1305 246 434 355 627 620 1100 255 455 332 592
773 1365 123 217 283 499 355 625 72 127 182 320 245 430 64 110 148 256 187
325 416 725 448 780 464 780 8 0 191 -304 407 -675 70 -121 381 -652 692
-1180 311 -528 735 -1250 942 -1605 785 -1345 969 -1660 1065 -1825 118 -204
236 -405 360 -615 51 -85 152 -258 225 -385 122 -212 311 -535 530 -910 48
-82 217 -373 375 -645 159 -272 365 -628 460 -790 213 -365 306 -525 521 -895
92 -159 269 -463 392 -675 123 -212 266 -457 317 -545 51 -88 162 -279 247
-425 85 -146 264 -454 398 -685 601 -1037 671 -1159 1293 -2240 44 -77 113
-196 153 -265 106 -185 346 -605 437 -765 43 -77 87 -154 98 -172 11 -17 16
-34 11 -37 -10 -6 -947 111 -1947 244 -170 23 -465 61 -655 85 -190 25 -466
60 -615 80 -148 19 -430 55 -625 80 -195 25 -458 59 -585 76 -126 16 -408 52
-625 80 -827 104 -1521 194 -1820 233 -454 61 -821 107 -1260 161 -107 13
-334 43 -503 65 -170 23 -311 40 -313 37 -5 -4 -6 -1049 -1 -1053 1 -1 47 -7
102 -13 55 -5 372 -40 705 -76 333 -36 688 -75 790 -85 102 -11 295 -31 430
-45 135 -14 535 -55 890 -90 355 -36 726 -74 825 -85 99 -10 358 -38 575 -60
217 -22 526 -54 685 -71 428 -44 817 -85 1205 -124 190 -20 424 -44 520 -55
96 -10 375 -40 620 -65 245 -25 591 -61 770 -80 308 -33 736 -75 1665 -165
536 -53 800 -79 853 -86 23 -3 42 -1 42 4 0 11 -141 256 -394 687 -582 988
-1262 2149 -1421 2425 -75 130 -258 444 -485 830 -282 481 -463 790 -634 1085
-68 116 -336 575 -596 1020 -260 446 -519 889 -575 985 -56 96 -226 387 -377
645 -152 259 -338 578 -415 710 -77 132 -178 305 -225 385 -142 242 -621 1060
-771 1315 -354 606 -1153 1966 -1560 2655 -60 102 -206 352 -325 555 -118 204
-257 440 -307 525 -51 85 -138 234 -195 330 -57 96 -160 272 -230 390 -70 118
-176 298 -235 400 -107 182 -314 534 -568 965 -276 467 -328 556 -442 750 -65
110 -166 281 -225 380 -112 189 -459 780 -600 1023 -46 78 -87 142 -91 142 -4
0 -27 -33 -50 -72z"/>
<path d="M10384 14018 c-85 -144 -637 -1113 -771 -1353 -80 -143 -174 -309
-208 -370 -157 -276 -376 -665 -525 -930 -89 -159 -229 -407 -310 -550 -81
-143 -210 -372 -287 -510 -257 -458 -329 -587 -579 -1030 -136 -242 -266 -474
-289 -515 -23 -41 -95 -169 -160 -285 -65 -115 -142 -255 -173 -310 -30 -55
-73 -134 -97 -175 -24 -41 -120 -214 -215 -385 -95 -170 -284 -508 -420 -750
-136 -242 -332 -591 -435 -775 -103 -184 -332 -591 -508 -905 -176 -313 -518
-925 -760 -1360 -425 -764 -508 -912 -719 -1282 -91 -160 -110 -200 -90 -191
71 33 3393 1697 3430 1718 64 37 67 42 284 430 260 466 345 616 508 905 84
149 355 630 603 1070 411 731 765 1359 970 1720 43 77 132 235 197 350 330
589 614 1082 647 1123 11 15 23 25 26 22 2 -3 69 -117 149 -255 578 -995 664
-1142 1205 -2070 154 -264 342 -588 418 -720 75 -132 161 -280 190 -330 87
-147 313 -537 631 -1085 278 -480 351 -606 539 -930 158 -271 252 -434 368
-635 201 -352 287 -495 297 -495 5 0 109 -14 232 -30 123 -17 306 -42 408 -55
102 -13 388 -51 635 -84 248 -33 486 -65 530 -70 44 -5 259 -33 478 -61 219
-28 409 -50 423 -48 l24 3 -38 65 c-22 36 -94 162 -162 280 -68 118 -241 415
-384 660 -264 452 -332 570 -471 810 -43 74 -128 221 -190 325 -176 297 -724
1235 -863 1475 -52 91 -199 343 -327 560 -128 217 -437 746 -687 1175 -547
936 -985 1685 -1173 2005 -215 366 -251 428 -409 700 -217 372 -414 709 -541
925 -62 105 -255 435 -430 735 -388 666 -871 1485 -897 1523 -11 15 -23 27
-28 27 -5 0 -26 -28 -46 -62z"/>
<path d="M10348 8073 c-80 -142 -196 -349 -258 -460 l-112 -202 24 -43 c14
-24 49 -83 78 -133 57 -97 101 -172 350 -600 90 -154 186 -318 213 -365 27
-47 80 -137 117 -200 37 -63 131 -225 210 -360 78 -135 151 -260 161 -277 36
-63 59 -103 80 -140 12 -21 25 -42 29 -48 5 -5 50 -82 100 -170 108 -187 99
-171 227 -390 55 -94 119 -201 142 -239 22 -37 41 -70 41 -72 0 -3 64 -113
207 -352 40 -68 73 -125 73 -127 0 -1 18 -33 41 -70 22 -37 49 -82 59 -99 9
-17 41 -71 70 -121 29 -49 61 -105 71 -123 46 -80 44 -79 127 -86 42 -4 145
-16 227 -27 459 -61 776 -100 785 -97 4 2 -53 111 -129 243 -75 132 -206 362
-291 510 -84 149 -199 349 -255 445 -56 96 -127 218 -157 270 -168 292 -666
1151 -756 1305 -58 99 -138 236 -177 305 -39 69 -120 208 -179 310 -263 451
-364 624 -731 1265 -120 209 -223 386 -229 393 -9 10 -44 -45 -158 -245z"/>
</g>
</svg>
