<?xml version="1.0" standalone="no"?>
<!DOCTYPE svg PUBLIC "-//W3C//DTD SVG 20010904//EN"
 "http://www.w3.org/TR/2001/REC-SVG-20010904/DTD/svg10.dtd">
<svg version="1.0" xmlns="http://www.w3.org/2000/svg"
 width="511.000000pt" height="470.000000pt" viewBox="0 0 511.000000 470.000000"
 preserveAspectRatio="xMidYMid meet">

<g transform="translate(0.000000,470.000000) scale(0.100000,-0.100000)"
fill="currentColor" stroke="none">
<path d="M4695 4666 c-31 -14 -103 -71 -185 -147 -145 -133 -415 -373 -597
-532 l-112 -97 -1693 0 c-1053 0 -1719 -4 -1761 -10 -156 -23 -282 -130 -327
-279 -20 -65 -20 -87 -18 -1676 l3 -1610 23 -58 c33 -81 116 -168 200 -209
l67 -33 2255 0 2255 0 67 33 c84 41 167 128 200 209 l23 58 3 1609 c3 1763 6
1660 -55 1764 -53 93 -171 175 -268 189 -25 3 -45 8 -45 10 0 3 74 86 165 185
132 145 169 191 185 235 52 138 -9 291 -142 357 -71 35 -171 36 -243 2z m201
-169 c26 -23 37 -43 41 -73 7 -54 -8 -80 -106 -184 l-79 -85 -97 95 -96 95 78
73 c101 95 128 112 181 112 34 0 49 -6 78 -33z m-352 -366 l98 -99 -153 -173
c-408 -461 -813 -951 -1183 -1431 -54 -71 -100 -128 -101 -128 -2 0 -22 34
-44 76 -93 172 -246 320 -414 400 -20 10 -37 21 -37 24 0 4 53 47 117 96 408
309 1132 909 1493 1237 58 53 110 96 115 96 6 1 55 -43 109 -98z m-948 -410
c-3 -4 -64 -56 -135 -114 l-129 -107 -1253 -2 c-1147 -3 -1257 -4 -1284 -20
-40 -22 -81 -66 -94 -101 -15 -40 -15 -2824 0 -2864 13 -34 55 -80 91 -99 41
-21 3785 -21 3826 0 36 19 78 65 91 99 15 40 15 2824 0 2864 -13 35 -55 80
-94 100 -17 9 -70 18 -127 22 l-97 6 61 70 c33 39 79 90 101 114 l41 44 85 -6
c60 -5 98 -13 130 -30 52 -27 105 -90 121 -145 6 -25 10 -557 10 -1612 -1
-1290 -3 -1582 -14 -1613 -21 -57 -62 -105 -116 -132 l-49 -25 -2211 0 -2211
0 -49 25 c-54 27 -95 75 -116 132 -11 31 -13 323 -14 1613 0 1026 4 1588 10
1611 23 82 98 152 180 168 58 11 3253 14 3246 2z m-476 -388 c0 -5 -123 -102
-272 -218 -292 -226 -317 -252 -388 -394 -103 -208 -180 -569 -140 -666 6 -16
-7 -35 -71 -101 -86 -89 -94 -112 -58 -158 15 -20 29 -26 57 -26 32 0 46 9
113 76 76 76 78 76 110 65 46 -16 89 -14 230 10 216 36 455 129 570 220 22 17
131 149 243 293 165 213 368 466 464 581 9 11 37 45 62 75 24 30 82 99 128
153 l83 97 139 0 c76 0 145 -3 154 -6 15 -6 16 -137 16 -1390 l0 -1384 -1855
0 -1855 0 0 1384 c0 1098 3 1385 13 1389 20 9 2257 8 2257 0z m-447 -699 c164
-83 311 -234 377 -388 l18 -44 -71 -32 c-88 -39 -255 -84 -377 -101 -86 -11
-93 -11 -118 8 -44 32 -41 116 10 323 23 98 86 260 99 260 5 0 33 -12 62 -26z"/>
<path d="M3695 3390 c-11 -4 -95 -84 -187 -177 -171 -172 -181 -187 -162 -238
7 -18 55 -45 80 -45 10 0 98 80 196 177 154 154 178 181 178 208 0 30 -30 75
-50 75 -4 0 -14 2 -22 4 -7 3 -22 1 -33 -4z"/>
<path d="M394 2270 c-52 -21 -54 -34 -54 -326 0 -259 1 -272 21 -298 16 -20
29 -26 59 -26 30 0 43 6 59 26 20 26 21 39 21 300 0 269 0 273 -22 298 -27 29
-55 38 -84 26z"/>
</g>
</svg>
