<?xml version="1.0" standalone="no"?>
<!DOCTYPE svg PUBLIC "-//W3C//DTD SVG 20010904//EN"
 "http://www.w3.org/TR/2001/REC-SVG-20010904/DTD/svg10.dtd">
<svg version="1.0" xmlns="http://www.w3.org/2000/svg"
 width="512.000000pt" height="337.000000pt" viewBox="0 0 512.000000 337.000000"
 preserveAspectRatio="xMidYMid meet">

<g transform="translate(0.000000,337.000000) scale(0.100000,-0.100000)"
fill="currentColor" stroke="none">
<path d="M1302 3360 c-96 -23 -152 -101 -152 -213 0 -46 -4 -69 -12 -71 -7 -2
-53 -11 -103 -21 -436 -80 -789 -386 -930 -807 -42 -127 -79 -336 -96 -543
-34 -423 58 -1182 171 -1420 81 -169 248 -276 435 -277 223 -2 368 107 537
402 30 52 69 128 88 168 31 67 35 72 64 72 71 0 235 32 334 65 305 102 541
305 697 600 27 50 60 103 74 119 55 61 153 82 229 50 54 -22 90 -60 129 -139
153 -305 404 -526 715 -630 98 -33 262 -65 333 -65 28 0 33 -7 89 -119 107
-218 230 -383 336 -451 227 -146 546 -66 683 171 77 134 142 462 182 919 26
298 16 550 -30 825 -54 319 -156 528 -355 725 -140 139 -299 237 -475 293 -71
22 -113 31 -241 52 l-32 6 -3 83 c-3 70 -8 89 -32 124 -15 23 -46 52 -70 64
-40 22 -55 23 -292 26 -300 5 -337 -1 -400 -61 -49 -47 -65 -92 -65 -179 l0
-58 -293 0 c-162 0 -409 3 -550 7 l-257 6 0 51 c0 28 -5 69 -11 91 -15 55 -83
119 -142 133 -52 13 -501 15 -555 2z m544 -164 c8 -11 14 -41 14 -68 l0 -48
-280 0 -280 0 0 54 c0 88 -1 87 288 84 228 -3 245 -4 258 -22z m1952 8 c18
-12 22 -25 22 -70 l0 -54 -280 0 -280 0 0 48 c0 49 13 75 40 85 8 3 119 6 245
6 193 1 234 -2 253 -15z m252 -299 c359 -59 657 -299 801 -644 131 -314 151
-948 49 -1546 -27 -161 -75 -330 -110 -392 -107 -187 -373 -221 -526 -68 -72
71 -164 214 -241 373 -79 162 -84 166 -224 176 -307 21 -597 176 -777 415 -32
42 -82 124 -111 181 -62 119 -117 180 -199 218 -49 23 -70 27 -152 27 -82 0
-103 -4 -152 -27 -82 -38 -137 -99 -199 -218 -29 -57 -79 -139 -111 -181 -180
-239 -474 -396 -779 -416 -138 -9 -144 -13 -222 -175 -77 -159 -169 -302 -241
-373 -153 -153 -419 -119 -526 68 -110 193 -204 940 -171 1367 23 300 64 479
146 645 159 323 474 546 825 583 41 5 696 7 1455 4 1116 -3 1396 -6 1465 -17z"/>
<path d="M1075 2704 c-673 -150 -914 -975 -423 -1450 183 -177 380 -252 637
-241 154 6 217 22 346 87 158 79 267 183 355 336 114 200 144 428 85 656 -48
181 -180 368 -341 479 -61 42 -195 104 -269 124 -88 24 -302 29 -390 9z m390
-168 c297 -100 488 -363 488 -671 0 -124 -19 -201 -78 -322 -91 -184 -273
-325 -485 -372 -76 -18 -229 -13 -314 9 -309 79 -536 369 -536 685 0 280 191
558 449 656 153 58 332 63 476 15z"/>
<path d="M1093 2389 c-65 -32 -87 -76 -93 -184 l-5 -90 -90 -5 c-102 -6 -146
-26 -180 -82 -17 -28 -20 -51 -20 -163 0 -118 2 -133 23 -166 37 -60 65 -73
172 -79 l95 -5 5 -90 c6 -106 26 -149 86 -182 34 -20 53 -23 158 -23 99 0 127
3 160 20 66 32 88 75 95 183 l6 92 90 5 c104 6 142 23 174 80 18 33 21 54 21
167 0 119 -2 133 -23 164 -42 63 -79 79 -178 79 l-89 0 0 78 c-1 112 -38 183
-113 211 -16 6 -79 11 -140 11 -93 0 -119 -3 -154 -21z m257 -229 c4 -79 9
-101 29 -129 35 -49 91 -71 184 -71 l77 0 0 -94 0 -94 -88 -4 c-69 -3 -96 -9
-124 -26 -59 -37 -72 -65 -78 -172 l-5 -95 -95 0 -95 0 -2 65 c-4 101 -12 128
-45 166 -41 46 -65 55 -168 63 l-85 6 0 90 0 90 90 5 c152 9 205 62 205 207 0
44 3 83 7 87 4 4 48 5 98 4 l90 -3 5 -95z"/>
<path d="M3711 2710 c-163 -34 -312 -113 -432 -227 -431 -412 -326 -1116 206
-1383 139 -70 229 -91 385 -91 156 0 246 21 385 91 339 170 526 538 461 910
-33 189 -117 342 -262 479 -72 68 -105 91 -198 136 -61 30 -138 61 -171 70
-70 20 -308 29 -374 15z m379 -176 c176 -58 328 -191 414 -362 88 -174 88
-439 0 -614 -89 -178 -233 -304 -419 -365 -71 -24 -96 -27 -215 -27 -119 0
-144 3 -215 27 -296 98 -485 360 -485 671 0 124 19 206 70 311 101 207 299
350 535 389 77 12 232 -3 315 -30z"/>
<path d="M3785 2451 c-141 -65 -169 -260 -51 -358 92 -76 204 -69 287 17 36
36 49 60 58 98 36 170 -139 315 -294 243z m125 -149 c43 -35 15 -112 -41 -112
-52 0 -79 85 -37 114 29 21 51 20 78 -2z"/>
<path d="M3419 2067 c-94 -35 -156 -125 -147 -216 6 -65 36 -119 86 -158 134
-102 326 -12 340 161 11 141 -147 262 -279 213z m105 -158 c31 -25 34 -61 6
-89 -39 -39 -110 -11 -110 44 0 25 41 66 65 66 7 0 24 -9 39 -21z"/>
<path d="M4186 2065 c-90 -32 -154 -138 -140 -232 20 -136 175 -221 299 -164
164 74 167 302 6 384 -60 30 -106 33 -165 12z m114 -155 c39 -39 11 -110 -44
-110 -25 0 -66 41 -66 67 0 21 46 63 70 63 11 0 29 -9 40 -20z"/>
<path d="M3808 1676 c-56 -20 -85 -42 -115 -87 -37 -57 -44 -149 -15 -206 82
-160 301 -165 381 -9 63 121 -4 272 -135 305 -54 14 -70 13 -116 -3z m111
-161 c19 -18 17 -62 -4 -85 -36 -40 -105 -14 -105 39 1 61 65 88 109 46z"/>
</g>
</svg>
