<?xml version="1.0" standalone="no"?>
<!DOCTYPE svg PUBLIC "-//W3C//DTD SVG 20010904//EN"
 "http://www.w3.org/TR/2001/REC-SVG-20010904/DTD/svg10.dtd">
<svg version="1.0" xmlns="http://www.w3.org/2000/svg"
 width="488.000000pt" height="428.000000pt" viewBox="0 0 488.000000 428.000000"
 preserveAspectRatio="xMidYMid meet">

<g transform="translate(0.000000,428.000000) scale(0.100000,-0.100000)"
fill="currentColor" stroke="none">
<path d="M1858 4270 c-82 -25 -113 -77 -180 -302 l-43 -147 -455 -3 c-444 -3
-456 -4 -495 -25 -47 -25 -86 -65 -109 -110 -14 -29 -16 -148 -16 -1237 l0
-1204 -274 -242 c-151 -133 -277 -252 -280 -264 -10 -37 -6 -539 4 -577 17
-61 52 -102 109 -131 l55 -28 2266 0 2266 0 55 28 c57 29 92 70 109 131 10 38
14 540 4 578 -3 12 -129 130 -280 264 l-274 241 0 1200 c0 1061 -2 1203 -16
1236 -19 47 -58 88 -109 115 -39 21 -51 22 -495 25 l-455 3 -48 162 c-56 184
-81 235 -134 269 l-38 23 -570 2 c-313 1 -582 -2 -597 -7z m1133 -156 c8 -9
32 -78 55 -153 l41 -136 -323 -3 c-178 -1 -470 -1 -648 0 l-323 3 41 136 c23
75 47 144 55 153 12 14 66 16 551 16 485 0 539 -2 551 -16z m-921 -661 l0
-208 -63 -36 c-193 -114 -340 -311 -397 -534 -29 -112 -29 -279 -1 -397 55
-234 202 -430 414 -552 l47 -28 0 -209 0 -209 -680 0 -680 0 0 1172 c0 1076 1
1173 17 1190 15 17 50 18 680 18 l663 0 0 -207z m590 26 c0 -162 -2 -180 -16
-175 -9 3 -58 11 -110 18 -90 11 -219 3 -291 -18 l-23 -6 0 181 0 181 220 0
220 0 0 -181z m1492 164 c17 -15 18 -65 18 -1190 l0 -1173 -680 0 -680 0 0
209 0 209 48 28 c277 161 435 436 434 754 -1 140 -24 237 -85 365 -75 154
-217 304 -360 380 l-37 20 0 207 0 208 662 0 c601 0 663 -2 680 -17z m-1537
-488 c33 -8 98 -34 145 -56 70 -34 101 -58 176 -134 75 -74 99 -107 132 -176
53 -109 74 -200 74 -319 0 -119 -19 -199 -76 -315 -118 -239 -356 -385 -625
-385 -111 0 -194 18 -287 60 -379 172 -528 614 -331 984 40 76 168 211 241
255 170 102 367 133 551 86z m-175 -1530 c69 0 146 4 173 9 l47 8 0 -181 0
-181 -220 0 -220 0 0 181 0 180 48 -8 c26 -4 103 -8 172 -8z m1970 -662 l189
-168 -1079 -3 c-594 -1 -1566 -1 -2159 0 l-1079 3 186 167 187 166 1783 1
1783 1 189 -167z m318 -554 c-3 -215 -4 -232 -22 -245 -30 -21 -4502 -21
-4532 0 -18 13 -19 30 -22 245 l-3 231 2291 0 2291 0 -3 -231z"/>
<path d="M1044 3426 c-62 -29 -110 -84 -129 -150 -21 -69 -21 -343 0 -412 60
-202 333 -236 442 -55 38 64 48 144 41 332 -5 115 -8 132 -34 179 -64 118
-198 163 -320 106z m149 -137 c45 -20 52 -50 52 -219 0 -169 -7 -199 -52 -219
-53 -24 -103 -9 -128 39 -21 42 -22 318 0 360 25 48 75 63 128 39z"/>
<path d="M1005 2530 c-17 -5 -41 -19 -54 -31 -41 -38 -51 -79 -51 -211 0 -140
16 -189 72 -223 29 -18 51 -20 180 -20 160 0 174 4 222 69 19 25 21 42 21 176
0 134 -2 151 -21 176 -46 63 -64 69 -207 71 -73 1 -146 -2 -162 -7z m240 -240
l0 -95 -95 0 -95 0 -3 84 c-2 46 0 90 2 98 4 11 27 13 98 11 l93 -3 0 -95z"/>
<path d="M3425 1985 c-86 -33 -146 -120 -146 -214 -1 -135 93 -231 226 -231
135 0 229 94 230 231 0 56 -4 73 -30 115 -58 93 -181 136 -280 99z m119 -146
c50 -23 57 -103 13 -134 -56 -39 -127 -3 -127 65 0 62 55 96 114 69z"/>
<path d="M2360 2983 c-138 -23 -265 -105 -344 -221 -64 -95 -88 -175 -88 -287
1 -292 222 -515 512 -515 263 0 472 184 510 448 47 332 -259 630 -590 575z
m230 -179 c79 -35 160 -121 190 -201 57 -150 5 -331 -121 -422 -130 -95 -308
-95 -438 0 -126 91 -178 274 -122 421 40 105 149 200 258 228 63 16 166 4 233
-26z"/>
<path d="M655 445 c-14 -13 -25 -36 -25 -50 0 -14 11 -37 25 -50 l24 -25 1761
0 1761 0 24 25 c32 31 32 69 0 100 l-24 25 -1761 0 -1761 0 -24 -25z"/>
</g>
</svg>
