<?xml version="1.0" standalone="no"?>
<!DOCTYPE svg PUBLIC "-//W3C//DTD SVG 20010904//EN"
 "http://www.w3.org/TR/2001/REC-SVG-20010904/DTD/svg10.dtd">
<svg version="1.0" xmlns="http://www.w3.org/2000/svg"
 width="422.000000pt" height="460.000000pt" viewBox="0 0 422.000000 460.000000"
 preserveAspectRatio="xMidYMid meet">

<g transform="translate(0.000000,460.000000) scale(0.100000,-0.100000)"
fill="currentColor" stroke="none">
<path d="M3144 4591 c-96 -24 -196 -108 -235 -197 -11 -25 -24 -84 -29 -132
-11 -108 -30 -443 -33 -577 l-2 -100 -105 -52 c-158 -77 -231 -168 -259 -318
-7 -39 -11 -362 -11 -972 l0 -913 -675 0 -675 0 0 253 c0 287 -5 316 -69 389
-61 68 -119 93 -221 93 -75 0 -91 -3 -138 -29 -91 -51 -152 -153 -152 -255 l0
-50 -57 -6 c-105 -13 -171 -56 -216 -140 -19 -35 -22 -60 -25 -191 l-4 -151
-51 -7 c-130 -15 -214 -158 -164 -279 28 -65 121 -127 193 -127 21 0 22 -5 26
-152 3 -133 7 -158 26 -194 43 -84 128 -134 226 -134 l46 0 0 -53 c0 -85 26
-144 90 -209 83 -83 175 -106 287 -73 75 22 136 74 172 146 l31 62 0 259 0
258 674 0 675 0 3 -272 c4 -300 5 -310 68 -382 18 -20 52 -47 74 -59 l41 -22
685 0 c657 0 687 1 724 19 46 23 99 74 123 119 17 30 18 118 18 1572 l0 1540
-32 68 c-45 94 -115 160 -230 216 l-90 44 -7 141 c-25 529 -32 609 -59 667
-39 82 -89 134 -165 171 l-66 33 -191 2 c-104 1 -204 -2 -221 -6z m417 -164
c29 -15 54 -40 73 -71 28 -45 31 -57 38 -189 5 -78 12 -244 16 -370 l7 -227
-349 0 -349 0 6 228 c12 441 27 542 89 599 48 45 83 52 259 53 155 0 169 -2
210 -23z m312 -1025 c81 -37 129 -80 161 -144 l26 -52 0 -1494 0 -1494 -34
-34 -34 -34 -305 0 -306 0 14 33 c7 17 16 62 20 100 l7 67 52 0 c91 1 178 59
217 145 15 33 19 66 19 185 l0 145 61 12 c129 25 200 135 165 255 -24 85 -106
148 -191 148 l-35 0 0 148 c0 121 -4 154 -19 187 -41 90 -107 136 -212 149
l-57 7 -6 62 c-19 173 -149 287 -315 275 -83 -6 -135 -32 -195 -98 -70 -79
-76 -110 -76 -397 l0 -243 -105 0 -105 0 2 938 c3 873 4 940 21 975 30 64 87
118 162 153 l70 33 468 0 467 1 63 -28z m-2972 -1497 c16 -9 39 -30 49 -48 19
-31 20 -56 20 -824 l0 -791 -26 -32 c-70 -83 -180 -77 -234 13 -19 31 -20 56
-20 810 0 649 2 782 14 805 16 30 53 66 76 75 30 11 92 7 121 -8z m2289 0 c16
-8 39 -29 52 -47 l23 -33 0 -785 c0 -767 0 -786 -20 -819 -57 -96 -196 -91
-247 10 -17 31 -18 91 -18 804 0 713 1 773 18 805 35 70 124 100 192 65z
m-2652 -867 l2 -538 -44 0 c-33 0 -52 6 -73 24 l-28 24 0 485 0 485 24 26 c23
24 54 35 96 32 20 -1 20 -9 23 -538z m2953 532 c71 -20 69 -4 69 -535 l0 -477
-29 -29 c-23 -23 -39 -29 -70 -29 l-41 0 0 540 c0 604 -7 552 71 530z m-2161
-535 l0 -145 -105 0 -105 0 0 145 0 145 105 0 105 0 0 -145z m1140 0 l0 -145
-495 0 -495 0 0 145 0 145 495 0 495 0 0 -145z m360 0 l0 -146 -102 3 -103 3
-3 143 -3 142 106 0 105 0 0 -145z m-2590 0 c0 -61 -14 -70 -58 -39 -42 29
-19 94 34 94 22 0 24 -3 24 -55z m3544 33 c9 -12 16 -28 16 -35 0 -22 -39 -53
-65 -53 -24 0 -25 3 -25 55 0 54 0 55 29 55 20 0 35 -8 45 -22z m-954 -570 c1
-208 3 -251 19 -295 l18 -53 -79 0 c-52 0 -89 5 -109 16 -54 27 -59 57 -59
329 l0 245 105 0 105 0 0 -242z"/>
<path d="M3254 4232 c-73 -34 -124 -119 -124 -203 0 -49 42 -132 81 -161 90
-67 206 -63 282 10 100 94 89 255 -21 335 -36 26 -54 32 -110 35 -50 2 -77 -2
-108 -16z m141 -152 c38 -42 9 -110 -47 -110 -56 0 -86 60 -52 108 20 29 74
30 99 2z"/>
</g>
</svg>
