<?xml version="1.0" standalone="no"?>
<!DOCTYPE svg PUBLIC "-//W3C//DTD SVG 20010904//EN"
 "http://www.w3.org/TR/2001/REC-SVG-20010904/DTD/svg10.dtd">
<svg version="1.0" xmlns="http://www.w3.org/2000/svg"
 width="256.000000pt" height="409.000000pt" viewBox="0 0 256.000000 409.000000"
 preserveAspectRatio="xMidYMid meet">

<g transform="translate(0.000000,409.000000) scale(0.100000,-0.100000)"
fill="currentColor" stroke="none">
<path d="M773 4071 c-26 -12 -52 -35 -69 -61 -25 -37 -29 -54 -32 -135 l-4
-94 -217 -3 c-195 -3 -221 -5 -262 -24 -67 -31 -114 -78 -149 -146 l-30 -61 0
-1511 0 -1511 28 -60 c48 -100 139 -164 248 -173 l62 -5 6 -43 c23 -169 193
-278 357 -231 100 29 181 126 196 232 l6 45 368 0 369 0 0 -24 c0 -102 93
-222 195 -252 73 -21 145 -14 211 19 82 42 138 120 150 211 l6 43 62 5 c108 9
195 69 246 170 l30 61 0 1512 0 1512 -30 61 c-35 68 -82 115 -149 146 -41 19
-67 21 -262 24 l-217 3 -4 94 c-3 81 -7 98 -32 135 -53 80 -47 80 -576 80
-435 0 -468 -2 -507 -19z m962 -154 c4 -13 5 -48 3 -78 l-3 -54 -455 0 -455 0
-3 54 c-2 30 -1 65 3 78 l5 23 450 0 450 0 5 -23z m582 -303 c19 -9 45 -33 59
-53 24 -36 24 -37 24 -293 l0 -258 -105 0 c-146 0 -202 -26 -246 -112 -18 -36
-19 -71 -19 -863 0 -792 1 -827 19 -863 44 -86 100 -112 246 -112 l105 0 0
-259 c0 -251 -1 -259 -23 -291 -12 -18 -38 -41 -57 -51 -33 -18 -81 -19 -1040
-19 -959 0 -1007 1 -1040 19 -19 10 -45 33 -57 51 -22 32 -23 40 -23 291 l0
259 105 0 c146 0 202 26 246 112 18 36 19 71 19 860 0 779 -1 825 -19 863 -40
88 -98 115 -246 115 l-105 0 0 258 c0 256 0 258 24 293 50 73 -23 69 1094 69
911 0 1007 -2 1039 -16z m-1956 -764 c19 -10 19 -30 19 -813 0 -611 -3 -806
-12 -815 -8 -8 -47 -12 -110 -12 l-98 0 0 825 0 825 91 0 c50 0 99 -5 110 -10z
m2039 -815 l0 -825 -98 0 c-63 0 -102 4 -110 12 -9 9 -12 204 -12 815 0 753 1
803 18 812 9 6 59 11 110 11 l92 0 0 -825z m-1644 -1777 c-9 -49 -38 -81 -84
-98 -76 -26 -153 18 -168 98 l-6 32 132 0 133 0 -7 -32z m1300 0 c-9 -48 -38
-81 -83 -97 -77 -28 -153 17 -169 98 l-6 31 132 0 133 0 -7 -32z"/>
<path d="M862 3180 l-22 -21 0 -1124 c0 -1112 0 -1125 20 -1145 38 -38 100
-22 119 31 14 41 16 2168 1 2218 -17 60 -76 80 -118 41z"/>
<path d="M1232 3180 l-22 -21 0 -1124 c0 -1112 0 -1125 20 -1145 26 -26 74
-26 100 0 20 20 20 33 20 1145 l0 1124 -22 21 c-12 11 -34 20 -48 20 -14 0
-36 -9 -48 -20z"/>
<path d="M1608 3186 c-10 -7 -22 -25 -28 -40 -15 -39 -14 -2182 1 -2225 19
-53 81 -69 119 -31 20 20 20 33 20 1145 l0 1124 -22 21 c-25 23 -65 26 -90 6z"/>
</g>
</svg>
