<svg version="1.1" id="Layer_1" xmlns="http://www.w3.org/2000/svg" xmlns:xlink="http://www.w3.org/1999/xlink" x="0px" y="0px"
	 width="100%" viewBox="0 0 102 64" enable-background="new 0 0 102 64" xml:space="preserve">

<path fill="currentColor" opacity="1.000000" stroke="none"
	d="
M29.218330,46.284859
	C26.937355,48.582764 25.000496,50.731827 22.821497,52.598186
	C21.956753,53.338860 19.832901,54.077541 19.534513,53.732918
	C18.679525,52.745449 17.890112,51.096874 18.111128,49.899475
	C18.690725,46.759373 19.957432,43.753075 20.692810,40.632763
	C21.414587,37.570179 21.819275,34.432865 22.363119,31.328342
	C21.982607,31.141148 21.602095,30.953951 21.221582,30.766756
	C18.026711,33.130371 14.875524,35.557537 11.602514,37.807487
	C10.892374,38.295654 9.745113,38.147945 8.799186,38.293114
	C8.855453,37.323463 8.620620,36.204273 9.026480,35.414211
	C9.972896,33.571877 10.985533,31.655657 12.400514,30.181240
	C17.590744,24.773006 22.821524,19.385416 28.352722,14.335845
	C29.693787,13.111552 32.332767,12.653509 34.195255,12.954590
	C35.026222,13.088920 35.945339,15.989726 35.895416,17.606274
	C35.772678,21.580248 35.111160,25.537580 34.603821,30.058746
	C39.451714,29.087782 41.549152,24.407724 44.865364,21.431969
	C48.492207,18.177477 51.642273,14.369459 55.407753,11.303275
	C56.796677,10.172294 59.502487,9.880799 61.302898,10.357483
	C62.217850,10.599730 63.050209,13.456950 62.890896,15.027671
	C62.385632,20.009121 61.406479,24.943174 60.586292,29.891535
	C60.385204,31.104742 60.091702,32.302635 59.840687,33.507565
	C60.244434,33.814445 60.648182,34.121323 61.051929,34.428200
	C64.294106,30.866430 67.169304,26.851845 70.868454,23.853945
	C75.840256,19.824652 80.291916,21.165903 83.323570,26.787836
	C84.241997,28.490978 85.251808,30.171766 85.932571,31.971430
	C88.729752,39.366047 89.591881,39.620022 95.317307,34.432560
	C96.138519,38.212433 94.903648,43.748123 91.907600,45.293934
	C89.843063,46.359116 86.486603,46.593781 84.454269,45.628082
	C81.861244,44.395966 79.739975,41.794338 77.913116,39.402782
	C73.766006,33.973755 69.767006,33.465710 65.022858,38.539825
	C61.342918,42.475716 58.041965,46.765419 54.557274,50.884926
	C54.020626,51.519333 53.505165,52.291496 52.801579,52.642517
	C50.637589,53.722149 48.387058,54.628315 46.170166,55.601898
	C46.112648,53.507805 45.671387,51.336582 46.073723,49.334919
	C47.054180,44.457050 48.600266,39.692211 49.562698,34.811672
	C50.012917,32.528610 49.639729,30.083170 49.639729,27.711323
	C49.208805,27.396685 48.777882,27.082047 48.346958,26.767408
	C45.145409,29.764280 41.836594,32.656143 38.771725,35.786827
	C35.548027,39.079754 32.557697,42.601143 29.218330,46.284859
z"/>
</svg>
