<svg version="1.1" id="Layer_1" xmlns="http://www.w3.org/2000/svg" xmlns:xlink="http://www.w3.org/1999/xlink" x="0px" y="0px"
	 width="100%" viewBox="0 0 150 170" enable-background="new 0 0 150 170" xml:space="preserve">

<path fill="currentColor" opacity="1.000000" stroke="none" 
	d="
M111.327202,24.298290 
	C116.995796,21.479389 122.357346,18.890863 128.002121,16.165596 
	C128.002121,22.579760 127.660599,28.581100 128.095459,34.525642 
	C128.556473,40.827599 125.844681,44.713585 120.381065,47.161118 
	C109.240799,52.151627 98.101967,57.145321 86.087746,62.529766 
	C86.087746,58.328197 85.945526,54.781559 86.127594,51.251648 
	C86.311066,47.694515 85.247673,47.455151 82.181374,48.867153 
	C76.337692,51.558105 70.185219,53.578800 64.343460,56.273434 
	C61.427528,57.618465 61.181450,56.813618 60.896397,54.110378 
	C60.576946,51.080906 62.924862,46.727409 59.538265,45.369232 
	C57.481590,44.544415 53.976181,47.172455 51.179344,48.382824 
	C42.968609,51.936157 34.786751,55.556225 26.087780,58.320606 
	C40.755066,47.213524 55.422352,36.106438 70.766502,24.486782 
	C70.907974,27.588467 71.022957,30.109617 71.173676,33.414139 
	C79.485832,28.884516 87.445335,24.547068 96.002144,19.884119 
	C96.002144,22.660666 96.223640,24.908192 95.956970,27.096224 
	C95.364738,31.955462 97.512024,31.479105 100.644760,29.796459 
	C104.060844,27.961626 107.558212,26.278133 111.327202,24.298290 
z"/>
<path fill="currentColor" opacity="1.000000" stroke="none"
	d="
M126.896797,131.692490 
	C129.629639,138.964142 126.431503,146.523087 118.904587,150.973923 
	C107.480423,157.729294 95.474106,155.879715 84.389427,147.812866 
	C81.603767,145.785599 79.064522,143.419739 76.399719,141.199219 
	C70.344315,147.288452 63.564022,152.503494 54.821629,154.568390 
	C45.091251,156.866623 29.108812,152.114349 25.764986,140.415359 
	C24.807003,137.063675 25.391266,133.923752 24.896231,129.764008 
	C28.014309,134.266602 31.295879,137.452759 36.008381,137.909180 
	C40.669651,138.360657 44.801258,136.402008 48.703941,133.861435 
	C54.510204,130.081665 60.298000,126.571251 67.232697,124.592865 
	C72.096313,123.205322 74.529068,129.935532 78.838127,126.596924 
	C82.880386,123.465027 86.985985,124.764854 91.155617,125.993217 
	C96.283157,127.503777 100.226227,130.987076 104.504036,133.941742 
	C112.065552,139.164490 120.842651,140.564346 126.896797,131.692490 
z"/>
<path fill="currentColor" opacity="1.000000" stroke="none"  mask="url(#mask2)"
	d="
M32.195843,70.486794
	C41.369724,61.215813 56.395519,62.913815 61.150608,73.304367
	C61.802223,74.728241 62.013592,76.060265 62.011032,77.540421
	C61.996624,85.873650 62.058754,94.207397 61.986980,102.540039
	C61.928421,109.338921 56.378170,114.879974 49.579670,114.986839
	C46.252262,115.039139 42.804543,115.445457 39.618458,114.746780
	C33.717747,113.452820 30.013067,108.018349 29.999550,101.709038
	C29.983839,94.375801 30.141642,87.038269 29.928968,79.711182
	C29.835068,76.476120 30.446482,73.590057 32.195843,70.486794
z"/>
<path fill="currentColor" opacity="1.000000" stroke="none" mask="url(#mask)"
	d="
M123.943604,90.005821
	C123.698112,95.246536 124.360817,99.997849 123.078270,104.748192
	C121.611374,110.181381 116.523369,115.044540 110.980484,114.925270
	C106.490860,114.828667 101.934227,115.972168 97.526199,113.222275
	C93.334259,110.607178 91.157082,107.171944 91.049988,102.516685
	C90.858734,94.202744 90.945442,85.880836 91.013748,77.563065
	C91.060287,71.897095 94.155411,67.582733 99.779099,66.051735
	C106.706688,64.165756 113.532867,63.601532 119.574158,68.989029
	C123.307884,72.318695 123.345222,76.754028 123.877792,81.036156
	C124.224182,83.821342 123.943398,86.684532 123.943604,90.005821
z"/>
<path fill="currentColor" opacity="1.000000" stroke="none"
	d="
M74.997360,82.149094
	C75.338692,77.425781 74.904930,73.548584 71.189056,70.581841
	C69.086166,68.902893 70.164726,66.409752 70.243179,64.122314
	C78.431877,67.112061 80.986328,70.578819 80.998451,78.572235
	C81.015099,89.544708 80.980766,100.517303 81.021507,111.489647
	C81.029411,113.616264 81.163498,115.165489 78.030975,115.138168
	C75.032539,115.112015 74.951653,113.786232 74.967720,111.553841
	C75.037125,101.911842 74.997383,92.269066 74.997360,82.149094
z"/>

    <defs>
        <mask id="mask2" x="0" y="0" width="200" height="200" >
       <path fill="white" opacity="1.000000" stroke="none"
       	d="
       M32.195843,70.486794
       	C41.369724,61.215813 56.395519,62.913815 61.150608,73.304367
       	C61.802223,74.728241 62.013592,76.060265 62.011032,77.540421
       	C61.996624,85.873650 62.058754,94.207397 61.986980,102.540039
       	C61.928421,109.338921 56.378170,114.879974 49.579670,114.986839
       	C46.252262,115.039139 42.804543,115.445457 39.618458,114.746780
       	C33.717747,113.452820 30.013067,108.018349 29.999550,101.709038
       	C29.983839,94.375801 30.141642,87.038269 29.928968,79.711182
       	C29.835068,76.476120 30.446482,73.590057 32.195843,70.486794
       z"/>
        <path fill="black" opacity="1.000000" stroke="none"
        	d="
        M56.042664,92.973175
        	C56.030937,96.466560 56.218822,99.483833 55.958096,102.461815
        	C55.614773,106.383179 53.185226,108.582664 49.313656,108.958321
        	C47.167244,109.166588 44.970119,109.152763 42.820404,108.962166
        	C38.700188,108.596878 36.127323,106.302002 36.039787,102.101799
        	C35.873142,94.105499 36.081852,86.101570 35.930794,78.104660
        	C35.887722,75.824348 36.833637,74.378815 38.399113,73.037003
        	C42.455757,69.559921 47.453350,70.391022 51.642696,71.507950
        	C55.100605,72.429871 56.544884,76.318489 56.127270,80.488380
        	C55.730659,84.448547 56.042397,88.479652 56.042664,92.973175
        z"/>
        </mask>
    </defs>


    <defs>
        <mask id="mask" x="0" y="0" width="200" height="200" >
        <path fill="white" opacity="1.000000" stroke="none"
        	d="
        M123.943604,90.005821
        	C123.698112,95.246536 124.360817,99.997849 123.078270,104.748192
        	C121.611374,110.181381 116.523369,115.044540 110.980484,114.925270
        	C106.490860,114.828667 101.934227,115.972168 97.526199,113.222275
        	C93.334259,110.607178 91.157082,107.171944 91.049988,102.516685
        	C90.858734,94.202744 90.945442,85.880836 91.013748,77.563065
        	C91.060287,71.897095 94.155411,67.582733 99.779099,66.051735
        	C106.706688,64.165756 113.532867,63.601532 119.574158,68.989029
        	C123.307884,72.318695 123.345222,76.754028 123.877792,81.036156
        	C124.224182,83.821342 123.943398,86.684532 123.943604,90.005821
        z"/>
            <path fill="black" opacity="1.000000" stroke="none"
                d="
            M108.806564,71.003906
                C113.325165,70.834541 116.189186,72.555374 116.981163,76.652458
                C118.706871,85.579819 118.633926,94.557716 117.021172,103.498192
                C116.294815,107.524796 113.572708,109.130836 109.629944,109.004890
                C107.971748,108.951927 106.310226,109.013947 104.650612,108.992661
                C100.013206,108.933197 97.045059,106.051300 97.014496,101.477264
                C96.972351,95.169968 97.351601,88.838341 96.921043,82.560287
                C96.301498,73.526672 100.281395,70.101250 108.806564,71.003906
            z"/>
        </mask>
    </defs>
</svg>