<svg version="1.1" id="Layer_1" xmlns="http://www.w3.org/2000/svg" xmlns:xlink="http://www.w3.org/1999/xlink" x="0px" y="0px"
	 width="100%" viewBox="0 0 379 222" enable-background="new 0 0 379 222" xml:space="preserve">

<path fill="currentColor" opacity="1.000000" stroke="none"
	d="M93.745911,68.753662
	C79.578575,83.266289 72.139381,100.610146 68.857468,120.041519 
	C68.575279,121.712250 66.557037,123.918472 64.916672,124.392311 
	C56.328491,126.873131 48.294102,130.129486 41.252209,135.906433 
	C32.554234,143.041977 27.886999,152.300827 26.096560,163.057861 
	C25.066010,169.249466 25.004383,175.602325 24.491386,182.074738 
	C17.831387,175.843704 18.678907,153.871048 23.315554,141.636154 
	C29.399975,125.580940 41.686913,116.360100 58.572987,113.661621 
	C63.548470,76.855896 84.722504,51.348282 116.986183,36.448219 
	C153.858093,19.419971 187.203278,31.046747 216.398590,54.592480 
	C228.156021,53.007008 239.298492,50.346752 250.456909,50.278019 
	C266.191925,50.181095 279.717621,56.919559 289.880554,69.094490 
	C293.941071,73.958855 296.341675,80.185188 300.226410,85.230583 
	C301.989838,87.520828 305.426147,88.668137 308.274994,89.954247 
	C328.491699,99.081085 344.794678,112.352318 352.983795,133.587631 
	C358.716644,148.453537 360.444824,163.920456 355.865326,179.473557 
	C354.600616,183.768845 353.029755,188.685242 346.995026,190.357788 
	C351.274506,171.373062 349.043762,153.659790 341.179596,136.704208 
	C335.177948,123.764328 325.532684,114.202530 312.693268,107.989647 
	C305.495300,104.506615 297.808929,101.878029 291.044128,97.722473 
	C287.838776,95.753464 286.241302,91.131035 283.978882,87.669250 
	C274.324768,72.897354 261.710083,62.584194 243.111816,64.280876 
	C235.365097,64.987595 227.744797,68.403191 220.369995,71.346237 
	C216.233307,72.997070 213.628448,75.245239 209.530838,70.355309 
	C200.769424,59.899769 189.655029,52.163914 176.758774,47.376125 
	C165.765198,43.294712 154.541306,42.323097 142.744904,43.784710 
	C129.222397,45.460201 117.217094,50.199539 106.336464,58.034523 
	C101.973366,61.176331 98.096466,64.993324 93.745911,68.753662 
z"/>
</svg>