<?xml version="1.0" standalone="no"?>
<!DOCTYPE svg PUBLIC "-//W3C//DTD SVG 20010904//EN"
 "http://www.w3.org/TR/2001/REC-SVG-20010904/DTD/svg10.dtd">
<svg version="1.0" xmlns="http://www.w3.org/2000/svg"
 width="520.000000pt" height="556.000000pt" viewBox="0 0 520.000000 556.000000"
 preserveAspectRatio="xMidYMid meet">

<g transform="translate(0.000000,556.000000) scale(0.100000,-0.100000)"
fill="currentColor" stroke="none">
<path d="M2560 5499 c-8 -5 -182 -67 -386 -139 -204 -71 -642 -228 -975 -348
-332 -121 -729 -264 -882 -318 l-278 -99 6 -45 c3 -25 52 -463 110 -975 220
-1959 264 -2338 272 -2345 10 -9 1431 -795 1808 -1000 154 -84 296 -163 316
-176 l37 -23 1087 605 c598 332 1092 604 1096 604 5 0 9 2 9 5 0 20 164 1373
276 2269 74 599 132 1092 127 1097 -10 9 -2598 902 -2607 898 0 0 -8 -4 -16
-10z m1190 -704 c613 -218 1120 -400 1126 -404 11 -7 -369 -3008 -383 -3022
-4 -4 -441 -233 -971 -509 l-963 -501 -942 521 c-518 287 -943 523 -944 524
-2 2 -179 1632 -228 2091 -33 321 -85 868 -82 870 19 14 2246 834 2257 831 8
-2 517 -182 1130 -401z"/>
<path d="M1543 3183 c3 -1025 3 -1028 25 -1112 51 -190 126 -331 246 -458 229
-243 503 -354 841 -339 298 12 517 107 721 311 143 144 229 301 277 510 20 87
21 119 24 1103 l4 1012 -220 0 -220 0 -3 -997 -3 -998 -23 -80 c-36 -131 -76
-201 -161 -285 -124 -122 -250 -171 -444 -171 -169 0 -292 41 -405 134 -137
114 -196 245 -221 492 -7 70 -11 428 -11 1007 l0 898 -215 0 -216 0 4 -1027z"/>
</g>
</svg>
